<svg xmlns="http://www.w3.org/2000/svg" width="120" height="120">
    <path fill="#EBEBEB" fill-rule="evenodd" d="M60 119.999c-33.137 0-60-26.863-60-60 0-33.136 26.863-60 60-60s60 26.864 60 60c0 33.137-26.863 60-60 60zM60 3C28.52 3 3 28.519 3 59.999c0 31.481 25.52 57 57 57s57-25.519 57-57C117 28.519 91.48 3 60 3z"/>
    <path fill="#00A99D" fill-rule="evenodd" d="M96 108l-1.8-2.4C108.044 95.201 117 78.647 117 59.999 117 28.519 91.48 3 60 3S3 28.519 3 59.999H0c0-33.136 26.863-60 60-60s60 26.864 60 60c0 19.629-9.428 37.054-24 48.001z"/>
</svg>
