<svg xmlns="http://www.w3.org/2000/svg" width="120" height="120">
    <path fill="#EBEBEB" fill-rule="evenodd" d="M60 119.999c-33.137 0-60-26.863-60-60 0-33.136 26.863-60 60-60s60 26.864 60 60c0 33.137-26.863 60-60 60zM60 3C28.52 3 3 28.519 3 59.999c0 31.481 25.52 57 57 57s57-25.519 57-57C117 28.519 91.48 3 60 3z"/>
    <path fill="#00A99D" fill-rule="evenodd" d="M60 119.999c-10.691 0-20.72-2.809-29.413-7.709l1.47-2.615c8.259 4.656 17.787 7.324 27.943 7.324 31.48 0 57-25.519 57-57C117 28.519 91.48 3 60 3S3 28.519 3 59.999H0c0-33.136 26.863-60 60-60s60 26.864 60 60c0 33.137-26.863 60-60 60z"/>
</svg>
